Coordinates
version=1
nRows=24
nColumns=24
inDegrees=yes

Units are S.I. units (second, meters, Newtons, ...)
Angles are in degrees.

endheader
time	pelvis_tilt	pelvis_list	pelvis_rotation	pelvis_tx	pelvis_ty	pelvis_tz	hip_flexion_r	hip_adduction_r	hip_rotation_r	knee_angle_r	ankle_angle_r	subtalar_angle_r	mtp_angle_r	hip_flexion_l	hip_adduction_l	hip_rotation_l	knee_angle_l	ankle_angle_l	subtalar_angle_l	mtp_angle_l	lumbar_extension	lumbar_bending	lumbar_rotation
      6.18000000	      1.62740360	     -4.70329152	     -4.38756011	     -1.73725998	      0.94298184	      0.17211506	     15.48314929	      4.52316423	     -4.89282075	    -54.45963727	     -1.57933976	    -14.00801984	      0.00000000	     -1.03257541	      0.83798541	     -7.13770854	      0.09531701	      5.76215261	      1.42164094	      0.00000000	    -21.50836334	      5.09908259	      2.04658893
      6.19000000	      1.52377581	     -4.71784086	     -4.26907783	     -1.72976828	      0.94303599	      0.17163342	     16.39005725	      4.58945475	     -5.01267386	    -53.36859782	      0.18643500	    -13.60157214	      0.00000000	     -1.45681329	      0.86744082	     -7.22633608	      0.14994524	      6.19449646	      1.76575518	      0.00000000	    -21.42171350	      5.18684053	      1.72321063
      6.20000000	      1.43206416	     -4.73281278	     -4.13715792	     -1.72223780	      0.94305668	      0.17118819	     17.18626704	      4.67411488	     -5.12218470	    -52.00526850	      1.74457485	    -13.12338273	      0.00000000	     -1.87123832	      0.89434665	     -7.34817680	      0.15996857	      6.68245885	      2.16584559	      0.00000000	    -21.34365863	      5.26927977	      1.38815583
      6.21000000	      1.34925037	     -4.75948963	     -3.98633473	     -1.71466642	      0.94304278	      0.17077305	     17.86502151	      4.78991737	     -5.22304848	    -50.36313691	      3.04605107	    -12.62340152	      0.00000000	     -2.28823519	      0.90799710	     -7.39814400	      0.15280813	      7.16147440	      2.49159651	      0.00000000	    -21.28099361	      5.36597248	      1.03757671
      6.22000000	      1.27622826	     -4.80623212	     -3.83126658	     -1.70704998	      0.94298666	      0.17040504	     18.42062956	      4.94371264	     -5.31717154	    -48.44389101	      4.07976409	    -12.14681414	      0.00000000	     -2.72316461	      0.90064070	     -7.34709056	      0.15143571	      7.61836776	      2.68843537	      0.00000000	    -21.23857200	      5.47957645	      0.68294247
      6.23000000	      1.21928354	     -4.83437341	     -3.68198351	     -1.69936846	      0.94286773	      0.17006122	     18.85455936	      5.08188978	     -5.41374552	    -46.28090054	      4.95556721	    -11.62623092	      0.00000000	     -3.18888532	      0.92157230	     -7.28354755	      0.17743238	      8.01730299	      2.78157854	      0.00000000	    -21.21690048	      5.57599353	      0.36528873
      6.24000000	      1.15646296	     -4.87729788	     -3.53686176	     -1.69162506	      0.94265613	      0.16979038	     19.18107601	      5.25141917	     -5.51384138	    -43.86397869	      5.55688638	    -11.16250796	      0.00000000	     -3.66984371	      0.92571260	     -7.15093543	      0.23529015	      8.42974026	      2.79933650	      0.00000000	    -21.19837597	      5.67702723	      0.06338045
      6.25000000	      1.13494356	     -4.87119932	     -3.40656937	     -1.68383496	      0.94237948	      0.16956566	     19.36917399	      5.37593302	     -5.60198634	    -41.24784047	      6.17619517	    -10.52826853	      0.00000000	     -4.19875276	      0.98959114	     -7.03743744	      0.30333576	      8.75466274	      2.73561064	      0.00000000	    -21.24375854	      5.71287530	     -0.22926529
      6.26000000	      1.09668966	     -4.85055087	     -3.28647315	     -1.67595782	      0.94195841	      0.16941563	     19.47118050	      5.49947216	     -5.69456411	    -38.42244799	      6.58879017	     -9.91809201	      0.00000000	     -4.72486889	      1.06605533	     -6.90596256	      0.38895453	      9.10559310	      2.66160477	      0.00000000	    -21.26096742	      5.72172503	     -0.50080697
      6.27000000	      1.06140612	     -4.78802011	     -3.16970157	     -1.66800448	      0.94140426	      0.16932657	     19.48151178	      5.58902762	     -5.79585263	    -35.42774696	      6.86029350	     -9.24474391	      0.00000000	     -5.25988751	      1.18447046	     -6.76562769	      0.47702503	      9.47727428	      2.60948752	      0.00000000	    -21.27607846	      5.67698433	     -0.75531519
      6.28000000	      1.03784748	     -4.67643442	     -3.07142842	     -1.65995508	      0.94071799	      0.16931099	     19.40125567	      5.63201908	     -5.92728295	    -32.30046243	      7.17944054	     -8.39461383	      0.00000000	     -5.81028069	      1.35599271	     -6.66126323	      0.56394098	      9.79105442	      2.49563673	      0.00000000	    -21.29192684	      5.56437415	     -0.99283088
      6.29000000	      1.00476885	     -4.53038334	     -2.95925033	     -1.65183089	      0.93989492	      0.16936767	     19.25088472	      5.65256935	     -6.07431397	    -29.03667915	      7.26967864	     -7.58663543	      0.00000000	     -6.33171677	      1.54986160	     -6.50000343	      0.59922014	     10.17258102	      2.44106585	      0.00000000	    -21.28836592	      5.39434259	     -1.23365471
      6.30000000	      0.99344308	     -4.32661800	     -2.85419647	     -1.64359158	      0.93896096	      0.16946248	     19.02024583	      5.61649206	     -6.24476732	    -25.70648270	      7.36462086	     -6.60922277	      0.00000000	     -6.88575419	      1.80679677	     -6.34854340	      0.64632035	     10.51689608	      2.33581492	      0.00000000	    -21.28471637	      5.16357648	     -1.48640388
      6.31000000	      0.97886751	     -4.09785304	     -2.73494254	     -1.63526402	      0.93791652	      0.16962440	     18.73271285	      5.56223973	     -6.44695227	    -22.30586676	      7.33269181	     -5.65349044	      0.00000000	     -7.41615042	      2.07534688	     -6.14978998	      0.63957279	     10.88402464	      2.22936846	      0.00000000	    -21.26508653	      4.88932046	     -1.73995416
      6.32000000	      0.97967577	     -3.83889019	     -2.60187444	     -1.62684174	      0.93679238	      0.16981844	     18.38575036	      5.47928409	     -6.67729145	    -18.88691288	      7.23289247	     -4.69365383	      0.00000000	     -7.95094440	      2.36670479	     -5.92185418	      0.59911882	     11.25058607	      2.10537414	      0.00000000	    -21.24988883	      4.58332534	     -1.99507940
      6.33000000	      0.98589289	     -3.55852810	     -2.46277756	     -1.61831721	      0.93558798	      0.17006629	     18.00205496	      5.37507493	     -6.96981510	    -15.48910293	      7.08583768	     -3.70157647	      0.00000000	     -8.48133624	      2.67057400	     -5.65692743	      0.52198445	     11.63618678	      1.93407109	      0.00000000	    -21.22678472	      4.24503078	     -2.23365131
      6.34000000	      0.99776312	     -3.26239351	     -2.27767689	     -1.60968058	      0.93432429	      0.17032506	     17.56911054	      5.26228172	     -7.22733653	    -12.11439639	      6.80999203	     -3.02469283	      0.00000000	     -8.99106147	      2.97072607	     -5.39341997	      0.38046547	     12.06729839	      1.90344076	      0.00000000	    -21.19062555	      3.89906632	     -2.52549070
      6.35000000	      1.06091879	     -2.95664254	     -2.10004680	     -1.60090483	      0.93306305	      0.17064186	     17.06807121	      5.13991463	     -7.56466388	     -8.85278675	      6.60646963	     -2.29193777	      0.00000000	     -9.56457060	      3.27595616	     -5.14485459	      0.23418942	     12.48085946	      1.86104154	      0.00000000	    -21.20439546	      3.53729064	     -2.79272213
      6.36000000	      1.14723798	     -2.64743170	     -1.95238596	     -1.59200007	      0.93178656	      0.17102722	     16.57640886	      5.01173310	     -8.19325183	     -5.80988435	      6.62246986	     -1.14481788	      0.00000000	    -10.17627452	      3.58459468	     -4.90524904	      0.09297013	     12.84825359	      1.75084246	      0.00000000	    -21.23030858	      3.16467694	     -3.01360137
      6.37000000	      1.22245443	     -2.36628262	     -1.78711022	     -1.58296093	      0.93046423	      0.17147504	     16.09703172	      4.93653676	     -8.80595290	     -2.94309247	      6.54868172	     -0.30100628	      0.00000000	    -10.75426101	      3.84369922	     -4.67594743	     -0.11550274	     13.27736689	      1.73948478	      0.00000000	    -21.22536443	      2.82628917	     -3.23501993
      6.38000000	      1.29361408	     -2.12802648	     -1.63559120	     -1.57375938	      0.92911130	      0.17200619	     15.64561472	      4.92860214	     -9.36392666	     -0.33449559	      6.47742138	      0.38771398	      0.00000000	    -11.33423668	      4.04826914	     -4.47865492	     -0.33733763	     13.70318897	      1.75118088	      0.00000000	    -21.18782597	      2.54383020	     -3.43960353
      6.39000000	      1.35227288	     -1.89613295	     -1.49934538	     -1.56448631	      0.92772783	      0.17261131	     15.26665363	      4.93598470	     -9.81613342	      1.92568180	      6.40678227	      0.88519076	      0.00000000	    -11.86593303	      4.23614637	     -4.26973829	     -0.64605308	     14.14778477	      1.76270728	      0.00000000	    -21.13996012	      2.25481087	     -3.57166681
      6.40000000	      1.41089049	     -1.68455649	     -1.41100860	     -1.55508640	      0.92632859	      0.17331852	     14.95806773	      4.96519546	    -10.09583812	      3.76591691	      6.38269802	      1.26209026	      0.00000000	    -12.41579383	      4.40586937	     -4.10357380	     -0.93891089	     14.59882836	      1.75857966	      0.00000000	    -21.07695807	      1.97652568	     -3.64143197
      6.41000000	      1.47371158	     -1.52547730	     -1.36103143	     -1.54557722	      0.92495099	      0.17410242	     14.71888643	      5.03009875	    -10.16561169	      5.13462160	      6.41585050	      1.55906267	      0.00000000	    -12.95752337	      4.51977353	     -3.97823544	     -1.27726797	     15.01016702	      1.75439593	      0.00000000	    -21.00577306	      1.75814281	     -3.66081105
